# xmcd
#
# Track frame offsets: 
#        150
#        15198
#        52133
#        67390
#        79417
#        94048
#        149145
#        181564
#        191685
#        200118
#        205927
#        211263
#        227071
#        230557
#        247168
#        257547
#        277773
#
# Disc length: 3890 seconds
#
# Revision: 0
# Processed by: cddbd v1.5.2PL0 Copyright (c) Steve Scherf et al.
# Submitted via: ExactAudioCopy v0.95b3
#
DISCID=000f3011
DTITLE=Jimi Hendrix  - In the Studio Reclamation 1967-1970 - Disc 09  
DTITLE=FLAC
DYEAR=1900
DGENRE=
TTITLE0=Angel
TTITLE1=1983 (A Merman I Should Turn To Be)
TTITLE2=Astro Man-Valleys Of Neptune
TTITLE3=Gypsy Eyes
TTITLE4=Cherokee Mist
TTITLE5=Cherokee Mist-Gypsy Eyes
TTITLE6=Power Of Soul
TTITLE7=Long Hot Summer
TTITLE8=Long Hot Summer
TTITLE9=Hear My Train A Comin'
TTITLE10=Hear My Train A Comin'
TTITLE11=Gypsy Eyes (3rd take)
TTITLE12=Gypsy Eyes (riff)
TTITLE13=South Saturn Delta
TTITLE14=3 Little Bears
TTITLE15=1983 (A Merman I Should Turn To Be - instrumental)
TTITLE16=Acoustic Jam
EXTD=
EXTT0=
EXTT1=
EXTT2=
EXTT3=
EXTT4=
EXTT5=
EXTT6=
EXTT7=
EXTT8=
EXTT9=
EXTT10=
EXTT11=
EXTT12=
EXTT13=
EXTT14=
EXTT15=
EXTT16=
PLAYORDER=
